# xmcd
#
# Track frame offsets:
#	150
#	14295
#	30480
#	52883
#	64760
#	79253
#	92963
#	110025
#	127310
#	145925
#
# Disc length: 2113 seconds
#
# Revision: 4
# Processed by: cddbd v1.5PL3 Copyright (c) Steve Scherf et al.
# Submitted via: EasyCDDAExtractor 6.5.7.1
#
DISCID=8a083f0a
DTITLE=Rosa Maria
DYEAR=1989
DGENRE=Blues
TTITLE0=Monday Monday
TTITLE1=San Francisco
TTITLE2=Can't Take My Eyes Off Of You
TTITLE3=Love Me Tender
TTITLE4=California Dreamin'
TTITLE5=The More I See You
TTITLE6=Do Wanna Dance
TTITLE7=When A Man Loves A Woman
TTITLE8=Oh Darling
TTITLE9=If
EXTD=
EXTT0=
EXTT1=
EXTT2=
EXTT3=
EXTT4=
EXTT5=
EXTT6=
EXTT7=
EXTT8=
EXTT9=
PLAYORDER=
